<svg width="278" height="171" viewBox="0 0 278 171" fill="none" xmlns="http://www.w3.org/2000/svg">
<path d="M130.925 0.516602L260.381 131.976H16.9434L130.925 0.516602Z" fill="black"/>
<path d="M64.2261 89.1339L131.495 14.7471L186.373 72.2777H167.785L131.495 32.7025L92.55 79.6065H107.155V89.1339H64.2261Z" fill="#FFD700"/>
<path d="M156.427 77.4902V87.5163H183.221L208.832 115.977H62.6501L81.1691 93.6613H65.8023L38.2207 125.68H232.868L189.919 77.4902H156.427Z" fill="#FFEA00"/>
<path d="M113.085 103.688V61.9668H125.3V76.1973H136.726V61.9668H148.941V103.688H136.726V87.1936H125.3V103.688H113.085Z" fill="#FFD700"/>
<path d="M3.45 163.27C2.93 163.27 2.52 163.13 2.22 162.85C1.92 162.57 1.77 162.18 1.77 161.68V150.76C1.77 147.92 2.58 145.7 4.2 144.1C5.82 142.5 8.07 141.7 10.95 141.7C12.83 141.7 14.46 142.07 15.84 142.81C17.22 143.53 18.27 144.57 18.99 145.93C19.73 147.29 20.1 148.9 20.1 150.76V161.68C20.1 162.18 19.95 162.57 19.65 162.85C19.35 163.13 18.94 163.27 18.42 163.27C17.9 163.27 17.48 163.13 17.16 162.85C16.84 162.55 16.68 162.16 16.68 161.68V156.16H5.19V161.68C5.19 162.16 5.03 162.55 4.71 162.85C4.39 163.13 3.97 163.27 3.45 163.27ZM16.68 153.49V150.67C16.68 148.63 16.19 147.08 15.21 146.02C14.25 144.96 12.83 144.43 10.95 144.43C9.05 144.43 7.61 144.96 6.63 146.02C5.67 147.06 5.19 148.61 5.19 150.67V153.49H16.68ZM25.7555 163.3C25.2355 163.3 24.8255 163.16 24.5255 162.88C24.2255 162.6 24.0755 162.21 24.0755 161.71V141.82C24.0755 141.32 24.2255 140.93 24.5255 140.65C24.8255 140.37 25.2355 140.23 25.7555 140.23C26.2755 140.23 26.6855 140.37 26.9855 140.65C27.2855 140.93 27.4355 141.32 27.4355 141.82V161.71C27.4355 162.19 27.2755 162.58 26.9555 162.88C26.6555 163.16 26.2555 163.3 25.7555 163.3ZM49.1958 163.3C47.2758 163.3 45.4658 162.97 43.7658 162.31C42.0858 161.65 40.6758 160.73 39.5358 159.55C39.2758 159.31 39.1458 159.02 39.1458 158.68C39.1458 158.26 39.3258 157.89 39.6858 157.57C39.9458 157.31 40.2358 157.18 40.5558 157.18C40.9758 157.18 41.4058 157.39 41.8458 157.81C42.7458 158.69 43.8258 159.37 45.0858 159.85C46.3658 160.31 47.7358 160.54 49.1958 160.54C50.6758 160.54 51.8158 160.28 52.6158 159.76C53.4358 159.24 53.8458 158.51 53.8458 157.57C53.8458 156.65 53.4258 155.91 52.5858 155.35C51.7458 154.77 50.3158 154.26 48.2958 153.82C45.3158 153.18 43.1558 152.34 41.8158 151.3C40.4758 150.24 39.8058 148.88 39.8058 147.22C39.8058 146.14 40.1458 145.18 40.8258 144.34C41.5258 143.5 42.4958 142.85 43.7358 142.39C44.9958 141.93 46.4458 141.7 48.0858 141.7C49.9258 141.7 51.5758 142.01 53.0358 142.63C54.5158 143.25 55.6058 144.11 56.3058 145.21C56.5058 145.53 56.6058 145.84 56.6058 146.14C56.6058 146.58 56.3858 146.95 55.9458 147.25C55.6858 147.41 55.4258 147.49 55.1658 147.49C54.9258 147.49 54.6858 147.43 54.4458 147.31C54.2058 147.19 54.0058 147.03 53.8458 146.83C53.2658 146.07 52.4658 145.49 51.4458 145.09C50.4458 144.67 49.3258 144.46 48.0858 144.46C46.5258 144.46 45.3258 144.7 44.4858 145.18C43.6658 145.64 43.2558 146.32 43.2558 147.22C43.2558 148.06 43.6558 148.75 44.4558 149.29C45.2558 149.81 46.6658 150.3 48.6858 150.76C51.7458 151.48 53.9458 152.37 55.2858 153.43C56.6258 154.49 57.2958 155.87 57.2958 157.57C57.2958 158.71 56.9558 159.72 56.2758 160.6C55.6158 161.46 54.6758 162.13 53.4558 162.61C52.2358 163.07 50.8158 163.3 49.1958 163.3ZM67.5895 170.5C66.1295 170.5 64.7995 170.27 63.5995 169.81C62.4195 169.37 61.5295 168.76 60.9295 167.98C60.7095 167.66 60.5995 167.36 60.5995 167.08C60.5995 166.64 60.8095 166.25 61.2295 165.91C61.4895 165.73 61.7695 165.64 62.0695 165.64C62.5695 165.64 63.0195 165.87 63.4195 166.33C63.8595 166.81 64.4295 167.18 65.1295 167.44C65.8495 167.7 66.6395 167.83 67.4995 167.83C69.0395 167.83 70.2295 167.4 71.0695 166.54C71.9095 165.68 72.3295 164.46 72.3295 162.88V161.35C71.8095 161.93 71.1395 162.39 70.3195 162.73C69.4995 163.07 68.6595 163.24 67.7995 163.24C65.3195 163.24 63.3795 162.57 61.9795 161.23C60.5995 159.87 59.9095 157.98 59.9095 155.56V149.5C59.9095 149.08 60.0695 148.73 60.3895 148.45C60.7095 148.15 61.1195 148 61.6195 148C62.0795 148 62.4695 148.15 62.7895 148.45C63.1095 148.73 63.2695 149.08 63.2695 149.5V155.56C63.2695 157.16 63.6695 158.41 64.4695 159.31C65.2695 160.19 66.3795 160.63 67.7995 160.63C69.1795 160.63 70.2495 160.2 71.0095 159.34C71.7895 158.46 72.1795 157.23 72.1795 155.65V149.8C72.1795 149.24 72.3295 148.8 72.6295 148.48C72.9295 148.16 73.3495 148 73.8895 148C74.4295 148 74.8495 148.16 75.1495 148.48C75.4495 148.8 75.5995 149.24 75.5995 149.8V162.49C75.5995 164.97 74.8795 166.92 73.4395 168.34C72.0195 169.78 70.0695 170.5 67.5895 170.5ZM86.708 163.3C84.988 163.3 83.488 163 82.208 162.4C80.948 161.78 79.978 160.9 79.298 159.76C78.638 158.62 78.308 157.27 78.308 155.71C78.308 153.29 79.028 151.4 80.468 150.04C81.908 148.68 83.908 148 86.468 148C88.048 148 89.448 148.25 90.668 148.75C91.888 149.25 92.838 149.95 93.518 150.85C94.198 151.73 94.538 152.74 94.538 153.88C94.538 154.8 94.258 155.51 93.698 156.01C93.138 156.51 92.348 156.76 91.328 156.76H81.608C81.608 158 82.048 158.96 82.928 159.64C83.808 160.32 85.068 160.66 86.708 160.66C87.648 160.66 88.478 160.56 89.198 160.36C89.918 160.16 90.588 159.84 91.208 159.4C91.788 159.02 92.228 158.83 92.528 158.83C92.788 158.83 93.058 158.97 93.338 159.25C93.658 159.55 93.818 159.88 93.818 160.24C93.818 160.62 93.648 160.94 93.308 161.2C91.628 162.6 89.428 163.3 86.708 163.3ZM90.308 154.33C90.648 154.33 90.898 154.26 91.058 154.12C91.218 153.98 91.298 153.74 91.298 153.4C91.298 152.58 90.858 151.92 89.978 151.42C89.098 150.9 87.928 150.64 86.468 150.64C84.988 150.64 83.818 150.98 82.958 151.66C82.098 152.32 81.668 153.21 81.668 154.33H90.308ZM103.779 163.3C102.199 163.3 100.799 163 99.5789 162.4C98.3789 161.78 97.4389 160.9 96.7589 159.76C96.0989 158.6 95.7689 157.24 95.7689 155.68C95.7689 154.14 96.0889 152.79 96.7289 151.63C97.3889 150.47 98.3289 149.58 99.5489 148.96C100.769 148.32 102.209 148 103.869 148C105.169 148 106.269 148.22 107.169 148.66C108.069 149.1 108.889 149.74 109.629 150.58L109.659 141.82C109.659 141.32 109.809 140.93 110.109 140.65C110.409 140.37 110.819 140.23 111.339 140.23C111.859 140.23 112.269 140.37 112.569 140.65C112.869 140.93 113.019 141.32 113.019 141.82V161.71C113.019 162.21 112.869 162.6 112.569 162.88C112.269 163.16 111.859 163.3 111.339 163.3C110.839 163.3 110.429 163.16 110.109 162.88C109.809 162.58 109.659 162.19 109.659 161.71V160.66C108.279 162.42 106.319 163.3 103.779 163.3ZM104.259 160.6C105.939 160.6 107.259 160.16 108.219 159.28C109.179 158.4 109.659 157.19 109.659 155.65C109.659 154.11 109.159 152.9 108.159 152.02C107.179 151.14 105.879 150.7 104.259 150.7C102.659 150.7 101.409 151.15 100.509 152.05C99.6089 152.93 99.1589 154.14 99.1589 155.68C99.1589 157.26 99.6089 158.48 100.509 159.34C101.409 160.18 102.659 160.6 104.259 160.6ZM130.077 163.3C128.177 163.3 126.657 162.85 125.517 161.95C124.377 161.05 123.807 159.85 123.807 158.35C123.807 156.87 124.407 155.69 125.607 154.81C126.827 153.93 128.467 153.49 130.527 153.49C132.527 153.49 134.087 153.95 135.207 154.87V153.73C135.207 152.73 134.887 151.97 134.247 151.45C133.627 150.91 132.707 150.64 131.487 150.64C129.767 150.64 128.287 151.02 127.047 151.78C126.627 152.02 126.247 152.14 125.907 152.14C125.547 152.14 125.217 151.98 124.917 151.66C124.717 151.44 124.617 151.18 124.617 150.88C124.617 150.4 124.827 150.02 125.247 149.74C125.967 149.2 126.877 148.78 127.977 148.48C129.077 148.16 130.227 148 131.427 148C133.687 148 135.457 148.51 136.737 149.53C138.017 150.55 138.657 151.96 138.657 153.76V161.8C138.657 162.26 138.507 162.63 138.207 162.91C137.907 163.17 137.497 163.3 136.977 163.3C136.457 163.3 136.047 163.17 135.747 162.91C135.467 162.65 135.327 162.29 135.327 161.83V161.26C134.147 162.62 132.397 163.3 130.077 163.3ZM130.797 160.84C132.157 160.84 133.237 160.62 134.037 160.18C134.837 159.72 135.237 159.1 135.237 158.32C135.237 157.56 134.847 156.96 134.067 156.52C133.287 156.08 132.217 155.86 130.857 155.86C129.677 155.86 128.757 156.08 128.097 156.52C127.457 156.96 127.137 157.57 127.137 158.35C127.137 159.15 127.447 159.77 128.067 160.21C128.707 160.63 129.617 160.84 130.797 160.84ZM144.027 163.3C143.507 163.3 143.097 163.16 142.797 162.88C142.497 162.6 142.347 162.21 142.347 161.71V141.82C142.347 141.32 142.497 140.93 142.797 140.65C143.097 140.37 143.507 140.23 144.027 140.23C144.547 140.23 144.957 140.37 145.257 140.65C145.557 140.93 145.707 141.32 145.707 141.82V161.71C145.707 162.19 145.547 162.58 145.227 162.88C144.927 163.16 144.527 163.3 144.027 163.3ZM159.547 163.3C159.027 163.3 158.617 163.16 158.317 162.88C158.017 162.6 157.867 162.21 157.867 161.71V143.29C157.867 142.79 158.017 142.4 158.317 142.12C158.617 141.84 159.027 141.7 159.547 141.7C160.067 141.7 160.477 141.85 160.777 142.15C161.097 142.43 161.257 142.81 161.257 143.29V150.88H172.837V143.29C172.837 142.81 172.987 142.43 173.287 142.15C173.607 141.85 174.027 141.7 174.547 141.7C175.067 141.7 175.477 141.84 175.777 142.12C176.097 142.4 176.257 142.79 176.257 143.29V161.71C176.257 162.21 176.097 162.6 175.777 162.88C175.477 163.16 175.067 163.3 174.547 163.3C174.027 163.3 173.607 163.16 173.287 162.88C172.987 162.58 172.837 162.19 172.837 161.71V153.55H161.257V161.71C161.257 162.19 161.097 162.58 160.777 162.88C160.477 163.16 160.067 163.3 159.547 163.3ZM185.594 163.3C183.694 163.3 182.174 162.85 181.034 161.95C179.894 161.05 179.324 159.85 179.324 158.35C179.324 156.87 179.924 155.69 181.124 154.81C182.344 153.93 183.984 153.49 186.044 153.49C188.044 153.49 189.604 153.95 190.724 154.87V153.73C190.724 152.73 190.404 151.97 189.764 151.45C189.144 150.91 188.224 150.64 187.004 150.64C185.284 150.64 183.804 151.02 182.564 151.78C182.144 152.02 181.764 152.14 181.424 152.14C181.064 152.14 180.734 151.98 180.434 151.66C180.234 151.44 180.134 151.18 180.134 150.88C180.134 150.4 180.344 150.02 180.764 149.74C181.484 149.2 182.394 148.78 183.494 148.48C184.594 148.16 185.744 148 186.944 148C189.204 148 190.974 148.51 192.254 149.53C193.534 150.55 194.174 151.96 194.174 153.76V161.8C194.174 162.26 194.024 162.63 193.724 162.91C193.424 163.17 193.014 163.3 192.494 163.3C191.974 163.3 191.564 163.17 191.264 162.91C190.984 162.65 190.844 162.29 190.844 161.83V161.26C189.664 162.62 187.914 163.3 185.594 163.3ZM186.314 160.84C187.674 160.84 188.754 160.62 189.554 160.18C190.354 159.72 190.754 159.1 190.754 158.32C190.754 157.56 190.364 156.96 189.584 156.52C188.804 156.08 187.734 155.86 186.374 155.86C185.194 155.86 184.274 156.08 183.614 156.52C182.974 156.96 182.654 157.57 182.654 158.35C182.654 159.15 182.964 159.77 183.584 160.21C184.224 160.63 185.134 160.84 186.314 160.84ZM204.255 163.3C202.615 163.3 201.205 163.05 200.025 162.55C198.865 162.03 197.925 161.33 197.205 160.45C196.965 160.11 196.845 159.79 196.845 159.49C196.845 159.01 197.075 158.63 197.535 158.35C197.815 158.19 198.075 158.11 198.315 158.11C198.695 158.11 199.075 158.3 199.455 158.68C200.135 159.36 200.825 159.86 201.525 160.18C202.245 160.48 203.105 160.63 204.105 160.63C205.025 160.63 205.775 160.5 206.355 160.24C206.935 159.98 207.225 159.63 207.225 159.19C207.225 158.85 207.115 158.57 206.895 158.35C206.695 158.11 206.335 157.88 205.815 157.66C205.295 157.44 204.485 157.15 203.385 156.79C201.265 156.11 199.765 155.42 198.885 154.72C198.025 154 197.595 153.09 197.595 151.99C197.595 150.75 198.125 149.78 199.185 149.08C200.245 148.36 201.685 148 203.505 148C204.885 148 206.145 148.22 207.285 148.66C208.425 149.1 209.265 149.68 209.805 150.4C210.025 150.68 210.135 150.98 210.135 151.3C210.135 151.7 209.925 152.04 209.505 152.32C209.245 152.5 208.945 152.59 208.605 152.59C208.145 152.59 207.685 152.38 207.225 151.96C206.325 151.1 205.075 150.67 203.475 150.67C201.815 150.67 200.985 151.11 200.985 151.99C200.985 152.33 201.095 152.61 201.315 152.83C201.535 153.05 201.915 153.27 202.455 153.49C203.015 153.69 203.915 153.99 205.155 154.39C206.515 154.81 207.585 155.24 208.365 155.68C209.145 156.12 209.705 156.62 210.045 157.18C210.385 157.72 210.555 158.39 210.555 159.19C210.555 160.43 209.995 161.43 208.875 162.19C207.755 162.93 206.215 163.3 204.255 163.3ZM215.029 163.3C214.509 163.3 214.099 163.16 213.799 162.88C213.499 162.6 213.349 162.21 213.349 161.71V141.82C213.349 141.32 213.499 140.93 213.799 140.65C214.099 140.37 214.509 140.23 215.029 140.23C215.549 140.23 215.959 140.37 216.259 140.65C216.559 140.93 216.709 141.32 216.709 141.82V150.76C218.169 148.92 220.119 148 222.559 148C224.459 148 225.949 148.58 227.029 149.74C228.129 150.9 228.679 152.5 228.679 154.54V161.71C228.679 162.21 228.519 162.6 228.199 162.88C227.899 163.16 227.489 163.3 226.969 163.3C226.449 163.3 226.039 163.16 225.739 162.88C225.459 162.6 225.319 162.21 225.319 161.71V154.54C225.319 153.3 225.019 152.35 224.419 151.69C223.819 151.03 222.969 150.7 221.869 150.7C220.269 150.7 219.009 151.18 218.089 152.14C217.169 153.08 216.709 154.36 216.709 155.98V161.71C216.709 162.19 216.549 162.58 216.229 162.88C215.929 163.16 215.529 163.3 215.029 163.3ZM233.966 145.69C233.326 145.69 232.796 145.51 232.376 145.15C231.976 144.77 231.776 144.29 231.776 143.71C231.776 143.13 231.976 142.66 232.376 142.3C232.796 141.92 233.326 141.73 233.966 141.73C234.606 141.73 235.136 141.92 235.556 142.3C235.976 142.66 236.186 143.13 236.186 143.71C236.186 144.29 235.976 144.77 235.556 145.15C235.136 145.51 234.606 145.69 233.966 145.69ZM233.966 163.3C233.446 163.3 233.036 163.16 232.736 162.88C232.456 162.6 232.316 162.21 232.316 161.71V149.59C232.316 149.09 232.456 148.7 232.736 148.42C233.036 148.14 233.446 148 233.966 148C234.486 148 234.896 148.14 235.196 148.42C235.516 148.7 235.676 149.09 235.676 149.59V161.71C235.676 162.21 235.516 162.6 235.196 162.88C234.896 163.16 234.486 163.3 233.966 163.3ZM241.073 163.3C240.553 163.3 240.143 163.16 239.843 162.88C239.563 162.6 239.423 162.21 239.423 161.71V149.59C239.423 149.09 239.563 148.7 239.843 148.42C240.143 148.14 240.553 148 241.073 148C241.593 148 242.003 148.15 242.303 148.45C242.603 148.73 242.753 149.11 242.753 149.59V150.64C243.253 149.8 243.873 149.15 244.613 148.69C245.373 148.23 246.183 148 247.043 148C247.923 148 248.703 148.24 249.383 148.72C250.083 149.18 250.603 149.82 250.943 150.64C252.343 148.88 253.963 148 255.803 148C257.403 148 258.633 148.54 259.493 149.62C260.373 150.68 260.813 152.19 260.813 154.15V161.71C260.813 162.21 260.653 162.6 260.333 162.88C260.033 163.16 259.623 163.3 259.103 163.3C258.583 163.3 258.173 163.16 257.873 162.88C257.593 162.6 257.453 162.21 257.453 161.71V153.97C257.453 151.79 256.673 150.7 255.113 150.7C253.773 150.7 252.713 151.49 251.933 153.07V161.71C251.933 162.21 251.783 162.6 251.483 162.88C251.183 163.16 250.773 163.3 250.253 163.3C249.733 163.3 249.323 163.16 249.023 162.88C248.723 162.6 248.573 162.21 248.573 161.71V154.54C248.573 151.98 247.803 150.7 246.263 150.7C245.203 150.7 244.353 151.12 243.713 151.96C243.073 152.78 242.753 153.89 242.753 155.29V161.71C242.753 162.19 242.603 162.58 242.303 162.88C242.003 163.16 241.593 163.3 241.073 163.3ZM266.076 145.69C265.436 145.69 264.906 145.51 264.486 145.15C264.086 144.77 263.886 144.29 263.886 143.71C263.886 143.13 264.086 142.66 264.486 142.3C264.906 141.92 265.436 141.73 266.076 141.73C266.716 141.73 267.246 141.92 267.666 142.3C268.086 142.66 268.296 143.13 268.296 143.71C268.296 144.29 268.086 144.77 267.666 145.15C267.246 145.51 266.716 145.69 266.076 145.69ZM266.076 163.3C265.556 163.3 265.146 163.16 264.846 162.88C264.566 162.6 264.426 162.21 264.426 161.71V149.59C264.426 149.09 264.566 148.7 264.846 148.42C265.146 148.14 265.556 148 266.076 148C266.596 148 267.006 148.14 267.306 148.42C267.626 148.7 267.786 149.09 267.786 149.59V161.71C267.786 162.21 267.626 162.6 267.306 162.88C267.006 163.16 266.596 163.3 266.076 163.3Z" fill="black"/>
</svg>
