<svg width="313" height="216" viewBox="0 0 313 216" fill="none" xmlns="http://www.w3.org/2000/svg">
<rect width="313" height="216" fill="#002B55"/>
<path d="M148.925 19.5166L278.381 150.976H34.9434L148.925 19.5166Z" fill="#25261E"/>
<path d="M82.2261 108.134L149.495 33.7473L204.373 91.278H185.785L149.495 51.7027L110.55 98.6067H125.155V108.134H82.2261Z" fill="white"/>
<path d="M174.427 96.491V106.517H201.221L226.832 134.978H80.6501L99.1691 112.662H83.8023L56.2207 144.681H250.868L207.919 96.491H174.427Z" fill="white"/>
<path d="M131.085 122.688V80.9666H143.3V95.1971H154.726V80.9666H166.941V122.688H154.726V106.193H143.3V122.688H131.085Z" fill="white"/>
<path d="M28.4773 194.309C27.4332 194.309 26.5028 194.128 25.6861 193.766C24.8693 193.396 24.223 192.853 23.7472 192.136C23.2784 191.411 23.044 190.509 23.044 189.43C23.044 188.521 23.2109 187.757 23.5447 187.139C23.8786 186.521 24.3331 186.024 24.9084 185.648C25.4837 185.271 26.1371 184.987 26.8686 184.795C27.6072 184.604 28.3814 184.469 29.1911 184.391C30.1428 184.291 30.9098 184.199 31.4922 184.114C32.0746 184.021 32.4972 183.886 32.7599 183.709C33.0227 183.531 33.1541 183.268 33.1541 182.92V182.857C33.1541 182.182 32.9411 181.66 32.5149 181.29C32.0959 180.921 31.4993 180.737 30.7251 180.737C29.9084 180.737 29.2585 180.918 28.7756 181.28C28.2926 181.635 27.973 182.082 27.8168 182.622L23.6193 182.281C23.8324 181.287 24.2514 180.428 24.8764 179.703C25.5014 178.972 26.3075 178.411 27.2947 178.02C28.2891 177.622 29.4396 177.423 30.7464 177.423C31.6555 177.423 32.5256 177.53 33.3565 177.743C34.1946 177.956 34.9368 178.286 35.5831 178.734C36.2365 179.181 36.7514 179.756 37.1278 180.46C37.5043 181.156 37.6925 181.99 37.6925 182.963V194H33.3885V191.731H33.2607C32.9979 192.242 32.6463 192.693 32.206 193.084C31.7656 193.467 31.2365 193.769 30.6186 193.989C30.0007 194.202 29.2869 194.309 28.4773 194.309ZM29.777 191.177C30.4446 191.177 31.0341 191.045 31.5455 190.783C32.0568 190.513 32.4581 190.151 32.7493 189.696C33.0405 189.241 33.1861 188.727 33.1861 188.151V186.415C33.044 186.507 32.8487 186.592 32.6001 186.67C32.3587 186.741 32.0852 186.809 31.7798 186.873C31.4744 186.93 31.169 186.983 30.8636 187.033C30.5582 187.075 30.2812 187.114 30.0327 187.15C29.5 187.228 29.0348 187.352 28.6371 187.523C28.2393 187.693 27.9304 187.924 27.7102 188.215C27.4901 188.499 27.38 188.854 27.38 189.281C27.38 189.898 27.6037 190.371 28.0511 190.697C28.5057 191.017 29.081 191.177 29.777 191.177ZM45.7518 172.182V194H41.2134V172.182H45.7518ZM68.2518 178.457C68.1665 177.597 67.8008 176.93 67.1545 176.454C66.5082 175.978 65.631 175.74 64.5231 175.74C63.7702 175.74 63.1346 175.847 62.6161 176.06C62.0977 176.266 61.6999 176.553 61.4229 176.923C61.1531 177.292 61.0181 177.711 61.0181 178.18C61.0039 178.57 61.0856 178.911 61.2631 179.202C61.4478 179.494 61.6999 179.746 62.0195 179.959C62.3391 180.165 62.7085 180.346 63.1275 180.502C63.5465 180.651 63.994 180.779 64.4698 180.886L66.43 181.354C67.3817 181.567 68.2553 181.852 69.0508 182.207C69.8462 182.562 70.5352 182.999 71.1175 183.517C71.6999 184.036 72.1509 184.646 72.4705 185.349C72.7972 186.053 72.9641 186.859 72.9712 187.768C72.9641 189.103 72.6232 190.261 71.9485 191.241C71.2809 192.214 70.315 192.97 69.0508 193.51C67.7937 194.043 66.2773 194.309 64.5018 194.309C62.7404 194.309 61.2063 194.039 59.8995 193.499C58.5998 192.96 57.5842 192.161 56.8526 191.102C56.1282 190.037 55.7482 188.719 55.7127 187.15H60.1765C60.2262 187.881 60.4357 188.492 60.805 188.982C61.1815 189.465 61.6822 189.831 62.3072 190.08C62.9393 190.321 63.6531 190.442 64.4485 190.442C65.2298 190.442 65.908 190.328 66.4833 190.101C67.0657 189.874 67.5167 189.558 67.8363 189.153C68.1559 188.748 68.3157 188.283 68.3157 187.757C68.3157 187.267 68.1701 186.855 67.8789 186.521C67.5948 186.187 67.1758 185.903 66.6218 185.669C66.0749 185.435 65.4038 185.222 64.6083 185.03L62.2326 184.433C60.3931 183.986 58.9407 183.286 57.8754 182.335C56.81 181.383 56.2809 180.101 56.288 178.489C56.2809 177.168 56.6325 176.013 57.3427 175.026C58.06 174.039 59.0437 173.268 60.2937 172.714C61.5437 172.161 62.9641 171.884 64.555 171.884C66.1744 171.884 67.5877 172.161 68.7951 172.714C70.0096 173.268 70.9542 174.039 71.6289 175.026C72.3036 176.013 72.6516 177.157 72.6729 178.457H68.2518ZM78.7907 200.136C78.2154 200.136 77.6756 200.09 77.1713 199.998C76.6742 199.913 76.2623 199.803 75.9355 199.668L76.9583 196.28C77.4909 196.443 77.9703 196.532 78.3965 196.546C78.8297 196.56 79.2026 196.461 79.5151 196.248C79.8347 196.035 80.0939 195.673 80.2928 195.161L80.5591 194.469L74.6891 177.636H79.4618L82.8496 189.653H83.0201L86.4398 177.636H91.2445L84.8844 195.768C84.579 196.649 84.1635 197.416 83.638 198.07C83.1195 198.73 82.4625 199.238 81.6671 199.593C80.8716 199.955 79.9128 200.136 78.7907 200.136ZM100.497 194.32C98.8137 194.32 97.3649 193.979 96.1504 193.297C94.943 192.608 94.0126 191.635 93.3592 190.378C92.7058 189.114 92.3791 187.619 92.3791 185.893C92.3791 184.21 92.7058 182.732 93.3592 181.461C94.0126 180.19 94.9324 179.199 96.1184 178.489C97.3116 177.778 98.7108 177.423 100.316 177.423C101.395 177.423 102.4 177.597 103.331 177.945C104.268 178.286 105.085 178.801 105.781 179.49C106.484 180.179 107.031 181.045 107.422 182.089C107.812 183.126 108.008 184.341 108.008 185.733V186.979H94.1902V184.167H103.736C103.736 183.513 103.594 182.935 103.309 182.43C103.025 181.926 102.631 181.532 102.127 181.248C101.63 180.957 101.051 180.811 100.39 180.811C99.7015 180.811 99.0907 180.971 98.5581 181.29C98.0325 181.603 97.6206 182.026 97.3223 182.558C97.024 183.084 96.8713 183.67 96.8642 184.316V186.99C96.8642 187.8 97.0133 188.499 97.3116 189.089C97.617 189.678 98.0467 190.133 98.6007 190.452C99.1547 190.772 99.8116 190.932 100.572 190.932C101.076 190.932 101.537 190.861 101.956 190.719C102.376 190.577 102.734 190.364 103.032 190.08C103.331 189.795 103.558 189.447 103.714 189.036L107.912 189.312C107.699 190.321 107.262 191.202 106.601 191.955C105.948 192.7 105.103 193.283 104.066 193.702C103.036 194.114 101.846 194.32 100.497 194.32ZM116.999 194.266C115.756 194.266 114.631 193.947 113.622 193.308C112.621 192.661 111.825 191.713 111.236 190.463C110.653 189.206 110.362 187.665 110.362 185.839C110.362 183.964 110.664 182.406 111.268 181.163C111.871 179.913 112.674 178.979 113.675 178.361C114.684 177.736 115.788 177.423 116.988 177.423C117.905 177.423 118.668 177.58 119.279 177.892C119.897 178.197 120.394 178.581 120.77 179.043C121.154 179.497 121.445 179.945 121.644 180.385H121.782V172.182H126.31V194H121.836V191.379H121.644C121.431 191.834 121.129 192.285 120.738 192.732C120.355 193.173 119.854 193.538 119.236 193.83C118.626 194.121 117.88 194.266 116.999 194.266ZM118.437 190.655C119.169 190.655 119.787 190.456 120.291 190.058C120.802 189.653 121.193 189.089 121.463 188.364C121.74 187.64 121.878 186.791 121.878 185.818C121.878 184.845 121.743 184 121.474 183.283C121.204 182.565 120.813 182.011 120.302 181.621C119.79 181.23 119.169 181.035 118.437 181.035C117.692 181.035 117.063 181.237 116.552 181.642C116.04 182.047 115.653 182.608 115.39 183.325C115.128 184.043 114.996 184.874 114.996 185.818C114.996 186.77 115.128 187.612 115.39 188.343C115.66 189.067 116.047 189.636 116.552 190.048C117.063 190.452 117.692 190.655 118.437 190.655ZM141.651 194.309C140.607 194.309 139.677 194.128 138.86 193.766C138.043 193.396 137.397 192.853 136.921 192.136C136.452 191.411 136.218 190.509 136.218 189.43C136.218 188.521 136.385 187.757 136.719 187.139C137.052 186.521 137.507 186.024 138.082 185.648C138.657 185.271 139.311 184.987 140.042 184.795C140.781 184.604 141.555 184.469 142.365 184.391C143.317 184.291 144.084 184.199 144.666 184.114C145.248 184.021 145.671 183.886 145.934 183.709C146.197 183.531 146.328 183.268 146.328 182.92V182.857C146.328 182.182 146.115 181.66 145.689 181.29C145.27 180.921 144.673 180.737 143.899 180.737C143.082 180.737 142.432 180.918 141.949 181.28C141.466 181.635 141.147 182.082 140.991 182.622L136.793 182.281C137.006 181.287 137.425 180.428 138.05 179.703C138.675 178.972 139.481 178.411 140.469 178.02C141.463 177.622 142.613 177.423 143.92 177.423C144.829 177.423 145.699 177.53 146.53 177.743C147.368 177.956 148.111 178.286 148.757 178.734C149.41 179.181 149.925 179.756 150.302 180.46C150.678 181.156 150.866 181.99 150.866 182.963V194H146.562V191.731H146.434C146.172 192.242 145.82 192.693 145.38 193.084C144.939 193.467 144.41 193.769 143.792 193.989C143.175 194.202 142.461 194.309 141.651 194.309ZM142.951 191.177C143.618 191.177 144.208 191.045 144.719 190.783C145.231 190.513 145.632 190.151 145.923 189.696C146.214 189.241 146.36 188.727 146.36 188.151V186.415C146.218 186.507 146.023 186.592 145.774 186.67C145.532 186.741 145.259 186.809 144.954 186.873C144.648 186.93 144.343 186.983 144.037 187.033C143.732 187.075 143.455 187.114 143.206 187.15C142.674 187.228 142.209 187.352 141.811 187.523C141.413 187.693 141.104 187.924 140.884 188.215C140.664 188.499 140.554 188.854 140.554 189.281C140.554 189.898 140.778 190.371 141.225 190.697C141.68 191.017 142.255 191.177 142.951 191.177ZM158.926 172.182V194H154.387V172.182H158.926ZM169.59 194V172.182H174.203V181.184H183.567V172.182H188.169V194H183.567V184.987H174.203V194H169.59ZM196.553 194.309C195.509 194.309 194.579 194.128 193.762 193.766C192.945 193.396 192.299 192.853 191.823 192.136C191.355 191.411 191.12 190.509 191.12 189.43C191.12 188.521 191.287 187.757 191.621 187.139C191.955 186.521 192.409 186.024 192.985 185.648C193.56 185.271 194.213 184.987 194.945 184.795C195.683 184.604 196.458 184.469 197.267 184.391C198.219 184.291 198.986 184.199 199.568 184.114C200.151 184.021 200.573 183.886 200.836 183.709C201.099 183.531 201.23 183.268 201.23 182.92V182.857C201.23 182.182 201.017 181.66 200.591 181.29C200.172 180.921 199.575 180.737 198.801 180.737C197.985 180.737 197.335 180.918 196.852 181.28C196.369 181.635 196.049 182.082 195.893 182.622L191.695 182.281C191.909 181.287 192.328 180.428 192.953 179.703C193.578 178.972 194.384 178.411 195.371 178.02C196.365 177.622 197.516 177.423 198.823 177.423C199.732 177.423 200.602 177.53 201.433 177.743C202.271 177.956 203.013 178.286 203.659 178.734C204.313 179.181 204.828 179.756 205.204 180.46C205.58 181.156 205.769 181.99 205.769 182.963V194H201.465V191.731H201.337C201.074 192.242 200.722 192.693 200.282 193.084C199.842 193.467 199.313 193.769 198.695 193.989C198.077 194.202 197.363 194.309 196.553 194.309ZM197.853 191.177C198.521 191.177 199.11 191.045 199.622 190.783C200.133 190.513 200.534 190.151 200.825 189.696C201.117 189.241 201.262 188.727 201.262 188.151V186.415C201.12 186.507 200.925 186.592 200.676 186.67C200.435 186.741 200.161 186.809 199.856 186.873C199.551 186.93 199.245 186.983 198.94 187.033C198.634 187.075 198.357 187.114 198.109 187.15C197.576 187.228 197.111 187.352 196.713 187.523C196.316 187.693 196.007 187.924 195.786 188.215C195.566 188.499 195.456 188.854 195.456 189.281C195.456 189.898 195.68 190.371 196.127 190.697C196.582 191.017 197.157 191.177 197.853 191.177ZM222.905 182.303L218.75 182.558C218.679 182.203 218.526 181.884 218.292 181.599C218.057 181.308 217.748 181.077 217.365 180.907C216.988 180.729 216.537 180.641 216.012 180.641C215.309 180.641 214.716 180.79 214.233 181.088C213.75 181.379 213.508 181.77 213.508 182.26C213.508 182.651 213.665 182.981 213.977 183.251C214.29 183.521 214.826 183.737 215.586 183.901L218.547 184.497C220.138 184.824 221.324 185.349 222.106 186.074C222.887 186.798 223.278 187.75 223.278 188.929C223.278 190.001 222.961 190.942 222.329 191.752C221.704 192.562 220.845 193.194 219.751 193.648C218.665 194.096 217.411 194.32 215.991 194.32C213.824 194.32 212.099 193.869 210.813 192.967C209.535 192.058 208.785 190.822 208.565 189.259L213.029 189.025C213.164 189.685 213.491 190.19 214.009 190.538C214.528 190.879 215.192 191.049 216.001 191.049C216.797 191.049 217.436 190.896 217.919 190.591C218.409 190.278 218.657 189.877 218.665 189.387C218.657 188.975 218.483 188.638 218.143 188.375C217.802 188.105 217.276 187.899 216.566 187.757L213.732 187.192C212.134 186.873 210.944 186.319 210.163 185.531C209.389 184.742 209.002 183.737 209.002 182.516C209.002 181.464 209.286 180.559 209.854 179.799C210.43 179.039 211.236 178.453 212.273 178.041C213.317 177.629 214.538 177.423 215.937 177.423C218.004 177.423 219.631 177.86 220.817 178.734C222.01 179.607 222.706 180.797 222.905 182.303ZM230.674 184.54V194H226.135V172.182H230.546V180.523H230.738C231.107 179.558 231.703 178.801 232.527 178.254C233.351 177.7 234.385 177.423 235.627 177.423C236.764 177.423 237.755 177.672 238.6 178.169C239.452 178.659 240.113 179.366 240.581 180.289C241.057 181.205 241.292 182.303 241.284 183.581V194H236.746V184.391C236.753 183.382 236.498 182.597 235.979 182.036C235.468 181.475 234.75 181.195 233.827 181.195C233.209 181.195 232.662 181.326 232.186 181.589C231.718 181.852 231.348 182.235 231.078 182.739C230.816 183.237 230.681 183.837 230.674 184.54ZM244.856 194V177.636H249.394V194H244.856ZM247.136 175.527C246.461 175.527 245.882 175.303 245.399 174.856C244.923 174.401 244.686 173.858 244.686 173.226C244.686 172.601 244.923 172.065 245.399 171.617C245.882 171.163 246.461 170.935 247.136 170.935C247.811 170.935 248.386 171.163 248.862 171.617C249.345 172.065 249.586 172.601 249.586 173.226C249.586 173.858 249.345 174.401 248.862 174.856C248.386 175.303 247.811 175.527 247.136 175.527ZM253.03 194V177.636H257.355V180.523H257.547C257.888 179.565 258.456 178.808 259.251 178.254C260.047 177.7 260.999 177.423 262.107 177.423C263.229 177.423 264.184 177.704 264.972 178.265C265.761 178.819 266.286 179.572 266.549 180.523H266.719C267.053 179.586 267.657 178.837 268.531 178.276C269.411 177.707 270.452 177.423 271.652 177.423C273.179 177.423 274.418 177.91 275.37 178.883C276.329 179.849 276.808 181.219 276.808 182.995V194H272.281V183.89C272.281 182.981 272.039 182.299 271.556 181.844C271.073 181.39 270.469 181.163 269.745 181.163C268.921 181.163 268.278 181.425 267.817 181.951C267.355 182.469 267.124 183.155 267.124 184.007V194H262.724V183.794C262.724 182.991 262.494 182.352 262.032 181.876C261.577 181.401 260.977 181.163 260.232 181.163C259.727 181.163 259.273 181.29 258.868 181.546C258.47 181.795 258.154 182.146 257.92 182.601C257.685 183.048 257.568 183.574 257.568 184.178V194H253.03ZM280.393 194V177.636H284.931V194H280.393ZM282.673 175.527C281.998 175.527 281.419 175.303 280.936 174.856C280.461 174.401 280.223 173.858 280.223 173.226C280.223 172.601 280.461 172.065 280.936 171.617C281.419 171.163 281.998 170.935 282.673 170.935C283.348 170.935 283.923 171.163 284.399 171.617C284.882 172.065 285.123 172.601 285.123 173.226C285.123 173.858 284.882 174.401 284.399 174.856C283.923 175.303 283.348 175.527 282.673 175.527Z" fill="white"/>
</svg>
