<svg width="537" height="388" viewBox="0 0 537 388" fill="none" xmlns="http://www.w3.org/2000/svg">
<rect width="537" height="388" fill="#002B55"/>
<path d="M255.715 22L478 297H60L255.715 22Z" fill="#25261E"/>
<path d="M141.188 207.379L256.694 51.769L350.923 172.118H319.007L256.694 89.3301L189.822 187.449H214.899V207.379H141.188Z" fill="white"/>
<path d="M299.504 183.023V203.996H345.511L389.488 263.534H138.482L170.28 216.851H143.894L96.5347 283.831H430.758L357.012 183.023H299.504Z" fill="white"/>
<path d="M225.083 237.825V150.548H246.056V180.317H265.676V150.548H286.65V237.825H265.676V203.32H246.056V237.825H225.083Z" fill="white"/>
<path d="M101.205 358.483C99.822 358.483 98.572 358.227 97.4545 357.716C96.3371 357.195 95.4517 356.442 94.7983 355.457C94.1544 354.473 93.8324 353.265 93.8324 351.835C93.8324 350.604 94.0691 349.591 94.5426 348.795C95.0161 348 95.6553 347.37 96.4602 346.906C97.2652 346.442 98.1648 346.092 99.1591 345.855C100.153 345.618 101.167 345.438 102.199 345.315C103.506 345.164 104.566 345.041 105.381 344.946C106.195 344.842 106.787 344.676 107.156 344.449C107.526 344.222 107.71 343.852 107.71 343.341V343.241C107.71 342.001 107.36 341.04 106.659 340.358C105.968 339.676 104.936 339.335 103.562 339.335C102.133 339.335 101.006 339.652 100.182 340.287C99.3674 340.912 98.804 341.608 98.4915 342.375L94.5 341.466C94.9735 340.14 95.6648 339.07 96.5739 338.256C97.4924 337.432 98.5483 336.835 99.7415 336.466C100.935 336.087 102.189 335.898 103.506 335.898C104.377 335.898 105.3 336.002 106.276 336.21C107.26 336.409 108.179 336.778 109.031 337.318C109.893 337.858 110.598 338.63 111.148 339.634C111.697 340.628 111.972 341.92 111.972 343.511V358H107.824V355.017H107.653C107.379 355.566 106.967 356.106 106.418 356.636C105.868 357.167 105.163 357.607 104.301 357.957C103.439 358.308 102.407 358.483 101.205 358.483ZM102.128 355.074C103.302 355.074 104.306 354.842 105.139 354.378C105.982 353.914 106.621 353.308 107.057 352.56C107.502 351.802 107.724 350.992 107.724 350.131V347.318C107.573 347.47 107.279 347.612 106.844 347.744C106.418 347.867 105.93 347.976 105.381 348.071C104.831 348.156 104.296 348.237 103.776 348.312C103.255 348.379 102.819 348.436 102.469 348.483C101.645 348.587 100.892 348.762 100.21 349.009C99.5379 349.255 98.9981 349.61 98.5909 350.074C98.1932 350.528 97.9943 351.134 97.9943 351.892C97.9943 352.943 98.3826 353.739 99.1591 354.278C99.9356 354.809 100.925 355.074 102.128 355.074ZM121.876 328.909V358H117.629V328.909H121.876ZM154.383 336.551C154.231 335.206 153.606 334.165 152.508 333.426C151.409 332.678 150.027 332.304 148.36 332.304C147.167 332.304 146.135 332.493 145.263 332.872C144.392 333.241 143.715 333.753 143.232 334.406C142.759 335.05 142.522 335.784 142.522 336.608C142.522 337.299 142.683 337.896 143.005 338.398C143.336 338.9 143.767 339.321 144.298 339.662C144.837 339.993 145.415 340.273 146.031 340.5C146.646 340.718 147.238 340.898 147.806 341.04L150.647 341.778C151.575 342.006 152.527 342.313 153.502 342.702C154.478 343.09 155.382 343.601 156.215 344.236C157.049 344.87 157.721 345.656 158.232 346.594C158.753 347.531 159.013 348.653 159.013 349.96C159.013 351.608 158.587 353.071 157.735 354.349C156.892 355.628 155.666 356.636 154.056 357.375C152.456 358.114 150.519 358.483 148.246 358.483C146.068 358.483 144.184 358.137 142.593 357.446C141.002 356.755 139.757 355.775 138.857 354.506C137.958 353.227 137.46 351.712 137.366 349.96H141.769C141.854 351.011 142.195 351.887 142.792 352.588C143.398 353.279 144.17 353.795 145.107 354.136C146.054 354.468 147.091 354.634 148.218 354.634C149.459 354.634 150.562 354.439 151.528 354.051C152.503 353.653 153.27 353.104 153.829 352.403C154.388 351.693 154.667 350.865 154.667 349.918C154.667 349.056 154.421 348.35 153.928 347.801C153.445 347.252 152.787 346.797 151.954 346.438C151.13 346.078 150.197 345.76 149.156 345.486L145.718 344.548C143.388 343.914 141.542 342.981 140.178 341.75C138.824 340.519 138.147 338.89 138.147 336.864C138.147 335.187 138.602 333.724 139.511 332.474C140.42 331.224 141.651 330.254 143.204 329.562C144.757 328.862 146.509 328.511 148.46 328.511C150.429 328.511 152.167 328.857 153.673 329.548C155.188 330.24 156.381 331.191 157.252 332.403C158.123 333.606 158.578 334.989 158.616 336.551H154.383ZM166.602 366.182C165.968 366.182 165.39 366.13 164.869 366.026C164.348 365.931 163.96 365.827 163.705 365.713L164.727 362.233C165.504 362.441 166.195 362.531 166.801 362.503C167.407 362.474 167.942 362.247 168.406 361.821C168.88 361.395 169.296 360.699 169.656 359.733L170.182 358.284L162.199 336.182H166.744L172.27 353.114H172.497L178.023 336.182H182.582L173.591 360.912C173.174 362.048 172.644 363.009 172 363.795C171.356 364.591 170.589 365.188 169.699 365.585C168.809 365.983 167.777 366.182 166.602 366.182ZM195.235 358.44C193.085 358.44 191.234 357.981 189.681 357.062C188.138 356.134 186.944 354.832 186.102 353.156C185.268 351.471 184.852 349.496 184.852 347.233C184.852 344.998 185.268 343.028 186.102 341.324C186.944 339.619 188.119 338.289 189.624 337.332C191.139 336.376 192.91 335.898 194.937 335.898C196.168 335.898 197.361 336.101 198.516 336.509C199.672 336.916 200.709 337.555 201.627 338.426C202.546 339.297 203.27 340.429 203.8 341.821C204.331 343.204 204.596 344.884 204.596 346.864V348.369H187.252V345.188H200.434C200.434 344.07 200.207 343.08 199.752 342.219C199.298 341.348 198.658 340.661 197.835 340.159C197.02 339.657 196.064 339.406 194.965 339.406C193.772 339.406 192.73 339.7 191.84 340.287C190.96 340.865 190.278 341.622 189.795 342.56C189.321 343.488 189.085 344.496 189.085 345.585V348.071C189.085 349.529 189.34 350.77 189.852 351.793C190.372 352.815 191.097 353.597 192.025 354.136C192.953 354.667 194.037 354.932 195.278 354.932C196.083 354.932 196.817 354.818 197.479 354.591C198.142 354.354 198.715 354.004 199.198 353.54C199.681 353.076 200.05 352.503 200.306 351.821L204.326 352.545C204.004 353.729 203.426 354.766 202.593 355.656C201.769 356.537 200.732 357.223 199.482 357.716C198.242 358.199 196.826 358.44 195.235 358.44ZM217.476 358.426C215.714 358.426 214.143 357.976 212.76 357.077C211.387 356.168 210.307 354.875 209.521 353.199C208.745 351.513 208.357 349.491 208.357 347.134C208.357 344.776 208.75 342.759 209.536 341.082C210.331 339.406 211.42 338.123 212.803 337.233C214.185 336.343 215.752 335.898 217.504 335.898C218.858 335.898 219.947 336.125 220.771 336.58C221.605 337.025 222.249 337.545 222.703 338.142C223.167 338.739 223.527 339.264 223.783 339.719H224.038V328.909H228.286V358H224.138V354.605H223.783C223.527 355.069 223.158 355.599 222.675 356.196C222.201 356.793 221.548 357.313 220.714 357.759C219.881 358.204 218.802 358.426 217.476 358.426ZM218.413 354.804C219.635 354.804 220.667 354.482 221.51 353.838C222.362 353.185 223.006 352.28 223.442 351.125C223.887 349.97 224.109 348.625 224.109 347.091C224.109 345.576 223.892 344.25 223.456 343.114C223.02 341.977 222.381 341.092 221.538 340.457C220.696 339.823 219.654 339.506 218.413 339.506C217.135 339.506 216.07 339.837 215.217 340.5C214.365 341.163 213.721 342.067 213.286 343.213C212.859 344.359 212.646 345.652 212.646 347.091C212.646 348.549 212.864 349.861 213.3 351.026C213.735 352.19 214.379 353.114 215.232 353.795C216.093 354.468 217.154 354.804 218.413 354.804ZM251.283 358.483C249.9 358.483 248.65 358.227 247.533 357.716C246.415 357.195 245.53 356.442 244.876 355.457C244.232 354.473 243.911 353.265 243.911 351.835C243.911 350.604 244.147 349.591 244.621 348.795C245.094 348 245.733 347.37 246.538 346.906C247.343 346.442 248.243 346.092 249.237 345.855C250.232 345.618 251.245 345.438 252.277 345.315C253.584 345.164 254.644 345.041 255.459 344.946C256.273 344.842 256.865 344.676 257.234 344.449C257.604 344.222 257.788 343.852 257.788 343.341V343.241C257.788 342.001 257.438 341.04 256.737 340.358C256.046 339.676 255.014 339.335 253.641 339.335C252.211 339.335 251.084 339.652 250.26 340.287C249.446 340.912 248.882 341.608 248.57 342.375L244.578 341.466C245.052 340.14 245.743 339.07 246.652 338.256C247.571 337.432 248.626 336.835 249.82 336.466C251.013 336.087 252.268 335.898 253.584 335.898C254.455 335.898 255.378 336.002 256.354 336.21C257.339 336.409 258.257 336.778 259.109 337.318C259.971 337.858 260.677 338.63 261.226 339.634C261.775 340.628 262.05 341.92 262.05 343.511V358H257.902V355.017H257.732C257.457 355.566 257.045 356.106 256.496 356.636C255.946 357.167 255.241 357.607 254.379 357.957C253.518 358.308 252.485 358.483 251.283 358.483ZM252.206 355.074C253.38 355.074 254.384 354.842 255.217 354.378C256.06 353.914 256.699 353.308 257.135 352.56C257.58 351.802 257.803 350.992 257.803 350.131V347.318C257.651 347.47 257.357 347.612 256.922 347.744C256.496 347.867 256.008 347.976 255.459 348.071C254.91 348.156 254.375 348.237 253.854 348.312C253.333 348.379 252.897 348.436 252.547 348.483C251.723 348.587 250.97 348.762 250.288 349.009C249.616 349.255 249.076 349.61 248.669 350.074C248.271 350.528 248.072 351.134 248.072 351.892C248.072 352.943 248.461 353.739 249.237 354.278C250.014 354.809 251.003 355.074 252.206 355.074ZM271.954 328.909V358H267.707V328.909H271.954ZM288.594 358V328.909H292.984V341.551H307.487V328.909H311.89V358H307.487V345.315H292.984V358H288.594ZM324.29 358.483C322.908 358.483 321.658 358.227 320.54 357.716C319.423 357.195 318.538 356.442 317.884 355.457C317.24 354.473 316.918 353.265 316.918 351.835C316.918 350.604 317.155 349.591 317.629 348.795C318.102 348 318.741 347.37 319.546 346.906C320.351 346.442 321.251 346.092 322.245 345.855C323.239 345.618 324.253 345.438 325.285 345.315C326.592 345.164 327.652 345.041 328.467 344.946C329.281 344.842 329.873 344.676 330.242 344.449C330.612 344.222 330.796 343.852 330.796 343.341V343.241C330.796 342.001 330.446 341.04 329.745 340.358C329.054 339.676 328.022 339.335 326.648 339.335C325.219 339.335 324.092 339.652 323.268 340.287C322.453 340.912 321.89 341.608 321.577 342.375L317.586 341.466C318.059 340.14 318.751 339.07 319.66 338.256C320.578 337.432 321.634 336.835 322.827 336.466C324.021 336.087 325.275 335.898 326.592 335.898C327.463 335.898 328.386 336.002 329.362 336.21C330.346 336.409 331.265 336.778 332.117 337.318C332.979 337.858 333.684 338.63 334.234 339.634C334.783 340.628 335.058 341.92 335.058 343.511V358H330.91V355.017H330.739C330.465 355.566 330.053 356.106 329.504 356.636C328.954 357.167 328.249 357.607 327.387 357.957C326.525 358.308 325.493 358.483 324.29 358.483ZM325.214 355.074C326.388 355.074 327.392 354.842 328.225 354.378C329.068 353.914 329.707 353.308 330.143 352.56C330.588 351.802 330.81 350.992 330.81 350.131V347.318C330.659 347.47 330.365 347.612 329.93 347.744C329.504 347.867 329.016 347.976 328.467 348.071C327.917 348.156 327.382 348.237 326.862 348.312C326.341 348.379 325.905 348.436 325.555 348.483C324.731 348.587 323.978 348.762 323.296 349.009C322.624 349.255 322.084 349.61 321.677 350.074C321.279 350.528 321.08 351.134 321.08 351.892C321.08 352.943 321.469 353.739 322.245 354.278C323.022 354.809 324.011 355.074 325.214 355.074ZM357.064 341.509L353.214 342.19C353.054 341.698 352.798 341.229 352.447 340.784C352.107 340.339 351.643 339.974 351.055 339.69C350.468 339.406 349.734 339.264 348.854 339.264C347.651 339.264 346.647 339.534 345.842 340.074C345.037 340.604 344.635 341.291 344.635 342.134C344.635 342.863 344.905 343.45 345.445 343.895C345.984 344.34 346.856 344.705 348.058 344.989L351.524 345.784C353.532 346.248 355.028 346.963 356.013 347.929C356.998 348.895 357.49 350.15 357.49 351.693C357.49 353 357.111 354.165 356.354 355.188C355.606 356.201 354.559 356.996 353.214 357.574C351.879 358.152 350.331 358.44 348.57 358.44C346.126 358.44 344.133 357.92 342.589 356.878C341.046 355.827 340.099 354.335 339.749 352.403L343.854 351.778C344.109 352.848 344.635 353.658 345.43 354.207C346.226 354.747 347.263 355.017 348.541 355.017C349.933 355.017 351.046 354.728 351.879 354.151C352.713 353.563 353.129 352.848 353.129 352.006C353.129 351.324 352.874 350.751 352.362 350.287C351.86 349.823 351.089 349.473 350.047 349.236L346.354 348.426C344.318 347.962 342.812 347.223 341.837 346.21C340.871 345.197 340.388 343.914 340.388 342.361C340.388 341.073 340.748 339.946 341.467 338.98C342.187 338.014 343.181 337.261 344.45 336.722C345.719 336.172 347.173 335.898 348.811 335.898C351.169 335.898 353.025 336.409 354.379 337.432C355.733 338.445 356.628 339.804 357.064 341.509ZM366.407 345.045V358H362.16V328.909H366.35V339.733H366.62C367.131 338.559 367.913 337.626 368.964 336.935C370.015 336.243 371.388 335.898 373.083 335.898C374.579 335.898 375.886 336.205 377.004 336.821C378.13 337.437 379.002 338.355 379.617 339.577C380.242 340.789 380.555 342.304 380.555 344.122V358H376.308V344.634C376.308 343.033 375.896 341.793 375.072 340.912C374.248 340.022 373.102 339.577 371.634 339.577C370.63 339.577 369.731 339.79 368.935 340.216C368.149 340.642 367.529 341.267 367.075 342.091C366.629 342.905 366.407 343.89 366.407 345.045ZM386.222 358V336.182H390.469V358H386.222ZM388.367 332.815C387.629 332.815 386.994 332.569 386.464 332.077C385.943 331.575 385.683 330.978 385.683 330.287C385.683 329.586 385.943 328.99 386.464 328.497C386.994 327.995 387.629 327.744 388.367 327.744C389.106 327.744 389.736 327.995 390.256 328.497C390.787 328.99 391.052 329.586 391.052 330.287C391.052 330.978 390.787 331.575 390.256 332.077C389.736 332.569 389.106 332.815 388.367 332.815ZM396.183 358V336.182H400.26V339.733H400.53C400.984 338.53 401.728 337.593 402.76 336.92C403.792 336.239 405.028 335.898 406.467 335.898C407.926 335.898 409.147 336.239 410.132 336.92C411.126 337.602 411.86 338.54 412.334 339.733H412.561C413.082 338.568 413.911 337.64 415.047 336.949C416.183 336.248 417.537 335.898 419.109 335.898C421.089 335.898 422.703 336.518 423.953 337.759C425.213 338.999 425.842 340.869 425.842 343.369V358H421.595V343.767C421.595 342.29 421.193 341.22 420.388 340.557C419.583 339.894 418.622 339.562 417.504 339.562C416.122 339.562 415.047 339.989 414.28 340.841C413.513 341.684 413.129 342.768 413.129 344.094V358H408.896V343.497C408.896 342.313 408.527 341.362 407.788 340.642C407.05 339.922 406.089 339.562 404.905 339.562C404.1 339.562 403.357 339.776 402.675 340.202C402.002 340.618 401.458 341.201 401.041 341.949C400.634 342.697 400.43 343.563 400.43 344.548V358H396.183ZM431.535 358V336.182H435.782V358H431.535ZM433.68 332.815C432.941 332.815 432.307 332.569 431.776 332.077C431.255 331.575 430.995 330.978 430.995 330.287C430.995 329.586 431.255 328.99 431.776 328.497C432.307 327.995 432.941 327.744 433.68 327.744C434.418 327.744 435.048 327.995 435.569 328.497C436.099 328.99 436.364 329.586 436.364 330.287C436.364 330.978 436.099 331.575 435.569 332.077C435.048 332.569 434.418 332.815 433.68 332.815Z" fill="white"/>
</svg>
